<svg id="visual" viewBox="0 0 1339 907" width="1339" height="907" xmlns="http://www.w3.org/2000/svg" xmlns:xlink="http://www.w3.org/1999/xlink" version="1.1"><rect x="0" y="0" width="1339" height="907" fill="#001220"></rect><defs><linearGradient id="grad1_0" x1="32.3%" y1="0%" x2="100%" y2="100%"><stop offset="20.474090407938256%" stop-color="#001220" stop-opacity="1"></stop><stop offset="79.52590959206174%" stop-color="#001220" stop-opacity="1"></stop></linearGradient></defs><defs><linearGradient id="grad2_0" x1="0%" y1="0%" x2="67.7%" y2="100%"><stop offset="20.474090407938256%" stop-color="#001220" stop-opacity="1"></stop><stop offset="79.52590959206174%" stop-color="#001220" stop-opacity="1"></stop></linearGradient></defs><g transform="translate(1339, 0)"><path d="M0 727.8C-82.5 675.6 -164.9 623.4 -241.1 582C-317.2 540.7 -387.1 510.1 -464.6 464.6C-542.1 419 -627.2 358.4 -672.4 278.5C-717.5 198.6 -722.6 99.3 -727.8 0L0 0Z" fill="#fa3c3c"></path></g><g transform="translate(0, 907)"><path d="M0 -727.8C80.1 -680.3 160.2 -632.8 250.3 -604.2C340.3 -575.7 440.3 -566.1 514.6 -514.6C588.9 -463.1 637.6 -369.8 668.9 -277.1C700.1 -184.3 714 -92.2 727.8 0L0 0Z" fill="#fa3c3c"></path></g></svg>